<svg width="53" height="53" viewBox="0 0 53 53" fill="none" xmlns="http://www.w3.org/2000/svg">
<path d="M53 26.5C53 41.1355 41.1355 53 26.5 53C11.8645 53 -1.4637e-06 41.1355 -1.4637e-06 26.5C-1.4637e-06 11.8645 11.8645 0 26.5 0C41.1355 0 53 11.8645 53 26.5Z" fill="white"/>
<path d="M13.9375 29.9688H20.5117V37.4219H38.7578V42.8008H18.5781C16.5391 42.8008 15.2734 42.543 14.7812 42.0273C14.2188 41.4414 13.9375 40.0234 13.9375 37.7734V29.9688ZM12.5664 11.3359H29.9688V12.0391C29.9688 14.4766 29.9102 16.3867 29.793 17.7695C29.6758 19.1523 29.5469 20.2656 29.4062 21.1094H22.7266C23.0078 20.2422 23.1836 19.5391 23.2539 19C23.3477 18.4609 23.3945 17.8281 23.3945 17.1016V16.6797H12.5664V11.3359ZM30.7422 21.918V27.2266H27.8945V34.4688H21.3555V27.2266H11.7578V21.918H30.7422ZM31.5859 10.7031H38.1953V35.4531H31.5859V33.6602H28.6328V28.1406H31.5859V10.7031Z" fill="#393939"/>
</svg>
